<svg width="285" height="35" viewBox="0 0 285 35" fill="none" xmlns="http://www.w3.org/2000/svg">
<g clip-path="url(#clip0_1763_5390)">
<path d="M35.0667 33.1571H12.5107C12.1041 33.1571 11.7744 33.513 11.7744 33.952C11.7744 34.3911 12.1041 34.747 12.5107 34.747H35.0667C35.4734 34.747 35.803 34.3911 35.803 33.952C35.803 33.513 35.4734 33.1571 35.0667 33.1571Z" fill="white"/>
<path d="M14.1546 8.49845C16.3283 8.49845 18.0905 6.59601 18.0905 4.24922C18.0905 1.90244 16.3283 0 14.1546 0C11.9809 0 10.2188 1.90244 10.2188 4.24922C10.2188 6.59601 11.9809 8.49845 14.1546 8.49845Z" fill="white"/>
<path d="M1.25611 28.6632C2.92996 30.4703 5.66958 30.4703 7.34342 28.6632L14.1549 21.3094L11.1112 18.0234C9.43738 16.2163 9.43738 13.2585 11.1112 11.4514L1.25611 22.0924C-0.417728 23.8995 -0.417728 26.8572 1.25611 28.6644V28.6632Z" fill="white"/>
<path d="M36.9162 18.0234L33.8726 21.3094L40.684 28.6632C42.3579 30.4703 45.0975 30.4703 46.7713 28.6632C48.4452 26.856 48.4452 23.8983 46.7713 22.0912L36.9162 11.4514C38.5901 13.2585 38.5901 16.2163 36.9162 18.0234Z" fill="white"/>
<path d="M17.1984 18.0234L14.1548 21.3094L20.9662 28.6632C21.8043 29.5679 22.9087 30.0191 24.0132 30.0179C25.1177 30.0179 26.2222 29.5667 27.0602 28.6632L33.8716 21.3094L30.828 18.0234C29.1541 16.2163 29.1541 13.2585 30.828 11.4514L24.0132 18.8088L17.1984 11.4514C18.8723 13.2585 18.8723 16.2163 17.1984 18.0234Z" fill="white"/>
<path d="M11.1111 18.0234L14.1547 21.3094L17.1984 18.0234C18.8722 16.2163 18.8722 13.2585 17.1984 11.4514C15.5246 9.64429 12.7849 9.64429 11.1111 11.4514C9.43725 13.2585 9.43725 16.2163 11.1111 18.0234Z" fill="white"/>
<path d="M30.8291 18.0234L33.8728 21.3094L36.9164 18.0234C38.5903 16.2163 38.5903 13.2585 36.9164 11.4514C35.2426 9.64429 32.503 9.64429 30.8291 11.4514C29.1553 13.2585 29.1553 16.2163 30.8291 18.0234Z" fill="white"/>
<path d="M33.8726 8.49845C36.0463 8.49845 37.8085 6.59601 37.8085 4.24922C37.8085 1.90244 36.0463 0 33.8726 0C31.6989 0 29.9368 1.90244 29.9368 4.24922C29.9368 6.59601 31.6989 8.49845 33.8726 8.49845Z" fill="white"/>
<path d="M60.4475 0.732788H68.1689L76.3236 23.5867L84.3059 0.732788H91.9399V34.2169H86.171V8.92806L76.9317 34.2169H75.0665L65.6537 8.92806V34.2169H60.4486V0.732788H60.4475Z" fill="white"/>
<path d="M99.0532 0.732788H118.443V5.64924H104.822V14.8292H115.753V19.5129H104.822V29.3005H119.18V34.2181H99.0532V0.732788Z" fill="white"/>
<path d="M124.385 0.732788H133.798C144.599 0.732788 149.848 7.38235 149.848 17.1233V17.5447C149.848 27.2857 144.598 34.2169 133.711 34.2169H124.384V0.732788H124.385ZM133.538 29.3005C140.479 29.3005 143.819 24.9916 143.819 17.5924V17.2176C143.819 10.0059 140.782 5.65043 133.495 5.65043H130.155V29.2993H133.538V29.3005Z" fill="white"/>
<path d="M160.682 1.14099H168.881C174.911 1.14099 179.466 3.76334 179.466 10.5537V10.7411C179.466 17.6258 174.954 20.2947 168.926 20.2947H163.114V34.6251H160.685V1.14099H160.682ZM169.098 18.188C174.086 18.188 177.036 15.8939 177.036 10.7423V10.5549C177.036 5.12285 173.87 3.29664 169.011 3.29664H163.111V18.1892H169.097L169.098 18.188Z" fill="white"/>
<path d="M185.32 1.14099H187.749V32.4719H202.801V34.6263H185.32V1.14099Z" fill="white"/>
<path d="M216.899 1.14099H220.108L231.257 34.6263H228.828L225.401 24.3697H211.433L208.05 34.6263H205.75L216.899 1.14099ZM212.127 22.2618H224.706L218.417 3.29544L212.127 22.2618Z" fill="white"/>
<path d="M233.251 18.0938V17.719C233.251 7.83715 239.541 0.718506 247.653 0.718506C254.073 0.718506 259.235 4.32438 260.189 11.2091H257.76C256.806 5.82354 253.421 2.82641 247.696 2.82641C240.755 2.82641 235.723 8.82068 235.723 17.6724V18.0472C235.723 27.0864 240.322 32.799 247.696 32.799C253.291 32.799 257.282 29.6144 258.279 23.8541H260.535C259.407 31.0658 254.331 35 247.651 35C238.802 35 233.25 28.2095 233.25 18.0938H233.251Z" fill="white"/>
<path d="M266.391 1.14099H284.219V3.29544H268.82V16.3618H281.313V18.5163H268.82V32.4719H285V34.6263H266.391V1.14099Z" fill="white"/>
</g>
<defs>
<clipPath id="clip0_1763_5390">
<rect width="285" height="35" fill="white"/>
</clipPath>
</defs>
</svg>
